<svg xmlns="http://www.w3.org/2000/svg" xmlns:xlink="http://www.w3.org/1999/xlink" width="67" height="67" viewBox="0 0 67 67">
  <defs>
    <linearGradient id="linear-gradient" x1="0.779" x2="0.165" y2="1" gradientUnits="objectBoundingBox">
      <stop offset="0" stop-color="#4f5bd5"/>
      <stop offset="0.251" stop-color="#962fbf"/>
      <stop offset="0.498" stop-color="#d62976"/>
      <stop offset="0.802" stop-color="#fa7e1e"/>
      <stop offset="1" stop-color="#feda75"/>
    </linearGradient>
    <filter id="Rectangle_5" x="0" y="0" width="67" height="67" filterUnits="userSpaceOnUse">
      <feOffset dy="3" input="SourceAlpha"/>
      <feGaussianBlur stdDeviation="3" result="blur"/>
      <feFlood flood-opacity="0.161"/>
      <feComposite operator="in" in2="blur"/>
      <feComposite in="SourceGraphic"/>
    </filter>
  </defs>
  <g id="Group_28" data-name="Group 28" transform="translate(-162 -724)">
    <g transform="matrix(1, 0, 0, 1, 162, 724)" filter="url(#Rectangle_5)">
      <rect id="Rectangle_5-2" data-name="Rectangle 5" width="49" height="49" rx="10" transform="translate(9 6)" fill="url(#linear-gradient)"/>
    </g>
    <path id="Icon_simple-instagram" data-name="Icon simple-instagram" d="M18.713,0C13.629,0,12.995.023,11,.112a13.8,13.8,0,0,0-4.543.87A9.164,9.164,0,0,0,3.141,3.141,9.131,9.131,0,0,0,.982,6.456,13.758,13.758,0,0,0,.112,11C.019,12.995,0,13.629,0,18.713s.023,5.718.112,7.714a13.807,13.807,0,0,0,.87,4.543,9.177,9.177,0,0,0,2.158,3.315,9.151,9.151,0,0,0,3.315,2.158,13.816,13.816,0,0,0,4.543.87c2,.094,2.631.112,7.714.112s5.718-.023,7.714-.112a13.848,13.848,0,0,0,4.543-.87,9.563,9.563,0,0,0,5.474-5.474,13.807,13.807,0,0,0,.87-4.543c.094-2,.112-2.631.112-7.714S37.4,12.995,37.314,11a13.839,13.839,0,0,0-.87-4.543,9.184,9.184,0,0,0-2.158-3.315A9.118,9.118,0,0,0,30.97.982a13.767,13.767,0,0,0-4.543-.87C24.431.019,23.8,0,18.713,0Zm0,3.368c4.995,0,5.591.025,7.563.111a10.31,10.31,0,0,1,3.473.647A6.158,6.158,0,0,1,33.3,7.677a10.332,10.332,0,0,1,.644,3.473c.089,1.974.109,2.567.109,7.563s-.023,5.591-.115,7.563a10.531,10.531,0,0,1-.657,3.473,5.942,5.942,0,0,1-1.4,2.155,5.838,5.838,0,0,1-2.152,1.4,10.408,10.408,0,0,1-3.485.644c-1.987.089-2.571.109-7.577.109s-5.592-.023-7.577-.115A10.611,10.611,0,0,1,7.6,33.283a5.8,5.8,0,0,1-2.15-1.4,5.682,5.682,0,0,1-1.4-2.152,10.62,10.62,0,0,1-.655-3.485c-.07-1.965-.1-2.571-.1-7.554s.025-5.592.1-7.58a10.608,10.608,0,0,1,.655-3.484,5.547,5.547,0,0,1,1.4-2.154,5.535,5.535,0,0,1,2.15-1.4,10.357,10.357,0,0,1,3.463-.657c1.988-.07,2.573-.094,7.577-.094l.07.047Zm0,5.736a9.609,9.609,0,1,0,9.609,9.609A9.609,9.609,0,0,0,18.713,9.1Zm0,15.847a6.238,6.238,0,1,1,6.238-6.238A6.236,6.236,0,0,1,18.713,24.951ZM30.948,8.725A2.246,2.246,0,1,1,28.7,6.481,2.247,2.247,0,0,1,30.948,8.725Z" transform="translate(177 736)" fill="#fff"/>
  </g>
</svg>
