<svg xmlns="http://www.w3.org/2000/svg" xmlns:xlink="http://www.w3.org/1999/xlink" width="29.067" height="44.315" viewBox="0 0 29.067 44.315">
  <defs>
    <linearGradient id="linear-gradient" x1="0.5" x2="0.161" y2="1.657" gradientUnits="objectBoundingBox">
      <stop offset="0" stop-color="#f1356d"/>
      <stop offset="0.432" stop-color="#d52faf"/>
      <stop offset="0.498" stop-color="#c32dc1"/>
      <stop offset="0.563" stop-color="#8b2ab6"/>
      <stop offset="0.612" stop-color="#a71e5d"/>
      <stop offset="1" stop-color="#791b37"/>
    </linearGradient>
  </defs>
  <path id="Path_27" data-name="Path 27" d="M26.7-8.889a3,3,0,0,1,2.124.92,3.2,3.2,0,0,1,.958,2.42q0,1.841-2.457,3.1a11.95,11.95,0,0,1-5.538,1.261,19,19,0,0,1-8.7-1.807q-3.54-1.807-3.54-7.67V-29.479H5.714a5.086,5.086,0,0,1-3.331-1.091A3.385,3.385,0,0,1,1.05-33.3a3.228,3.228,0,0,1,1.333-2.625,5.194,5.194,0,0,1,3.331-1.057H9.545v-4.363A3.686,3.686,0,0,1,11-44.307,5.532,5.532,0,0,1,14.625-45.5a5.243,5.243,0,0,1,3.5,1.193,3.726,3.726,0,0,1,1.416,2.966s-7.682,7.57-6.9,8.9,7.35-2.651,8.611-.853,6.644-3.318,7.532-2.591a3.385,3.385,0,0,1,1.333,2.727,3.228,3.228,0,0,1-1.333,2.625,5.194,5.194,0,0,1-3.331,1.057H19.539V-11a2.369,2.369,0,0,0,.916,2.079,4.259,4.259,0,0,0,2.5.648,8.59,8.59,0,0,0,1.832-.273A5.928,5.928,0,0,1,26.7-8.889Z" transform="translate(-1.05 45.5)" fill="url(#linear-gradient)"/>
</svg>
