<svg xmlns="http://www.w3.org/2000/svg" width="55.406" height="31.5" viewBox="0 0 55.406 31.5">
  <g id="Group_81" data-name="Group 81" transform="translate(-356.75 -64.5)">
    <path id="Line_2" data-name="Line 2" d="M44.625,3H0A3,3,0,0,1-3,0,3,3,0,0,1,0-3H44.625a3,3,0,0,1,3,3A3,3,0,0,1,44.625,3Z" transform="translate(359.75 67.5)"/>
    <path id="Line_3" data-name="Line 3" d="M44.625,3H0A3,3,0,0,1-3,0,3,3,0,0,1,0-3H44.625a3,3,0,0,1,3,3A3,3,0,0,1,44.625,3Z" transform="translate(364.531 80.25)"/>
    <path id="Line_4" data-name="Line 4" d="M44.625,3H0A3,3,0,0,1-3,0,3,3,0,0,1,0-3H44.625a3,3,0,0,1,3,3A3,3,0,0,1,44.625,3Z" transform="translate(359.75 93)"/>
  </g>
</svg>
