<svg xmlns="http://www.w3.org/2000/svg" width="5.054" height="21.206" viewBox="0 0 5.054 21.206"><g transform="translate(-364.204 -40.842)"><path d="M4.484,37.962a2.289,2.289,0,0,1-1.691-.589A2.289,2.289,0,0,1,2.2,35.682v-.646a2.289,2.289,0,0,1,.589-1.691,2.289,2.289,0,0,1,1.691-.589h.494a2.289,2.289,0,0,1,1.691.589,2.289,2.289,0,0,1,.589,1.691v.646a2.289,2.289,0,0,1-.589,1.691,2.289,2.289,0,0,1-1.691.589Z" transform="translate(362 8.086)" fill="#f1356d"/><path d="M4.484,37.962a2.289,2.289,0,0,1-1.691-.589A2.289,2.289,0,0,1,2.2,35.682v-.646a2.289,2.289,0,0,1,.589-1.691,2.289,2.289,0,0,1,1.691-.589h.494a2.289,2.289,0,0,1,1.691.589,2.289,2.289,0,0,1,.589,1.691v.646a2.289,2.289,0,0,1-.589,1.691,2.289,2.289,0,0,1-1.691.589Z" transform="translate(362 16.086)" fill="#f1356d"/><path d="M4.484,37.962a2.289,2.289,0,0,1-1.691-.589A2.289,2.289,0,0,1,2.2,35.682v-.646a2.289,2.289,0,0,1,.589-1.691,2.289,2.289,0,0,1,1.691-.589h.494a2.289,2.289,0,0,1,1.691.589,2.289,2.289,0,0,1,.589,1.691v.646a2.289,2.289,0,0,1-.589,1.691,2.289,2.289,0,0,1-1.691.589Z" transform="translate(362 24.086)" fill="#f1356d"/></g></svg>