<svg xmlns="http://www.w3.org/2000/svg" width="42" height="42.501" viewBox="0 0 42 42.501"><g transform="translate(-309 -35)"><circle cx="21" cy="21" r="21" transform="translate(309 35)" fill="#f0f0f0"/><path d="M21,1a20.006,20.006,0,0,0-7.785,38.429A20.005,20.005,0,0,0,28.785,2.571,19.874,19.874,0,0,0,21,1m0-1A21,21,0,1,1,0,21,21,21,0,0,1,21,0Z" transform="translate(309 35)" fill="#707070"/><circle cx="7" cy="7" r="7" transform="translate(323 47)" fill="#fff"/><path d="M7,1a6,6,0,1,0,6,6A6.007,6.007,0,0,0,7,1M7,0A7,7,0,1,1,0,7,7,7,0,0,1,7,0Z" transform="translate(323 47)" fill="#707070"/><path d="M719.059,161.935s3.7,5.308,12.147,5.474a15.593,15.593,0,0,0,12.581-5.474s-3.791-9.307-12.581-9.58S719.059,161.935,719.059,161.935Z" transform="translate(-401.223 -90.412)" fill="#fff"/><path d="M731.573,167.913h0c-.125,0-.251,0-.376,0a17.336,17.336,0,0,1-9.514-2.886,12.364,12.364,0,0,1-3.034-2.8l-.145-.208.082-.239a18.534,18.534,0,0,1,2.778-4.94,13.979,13.979,0,0,1,3.79-3.416,10.992,10.992,0,0,1,6.068-1.563,12.56,12.56,0,0,1,5.907,1.678,15.729,15.729,0,0,1,4.042,3.387,19.247,19.247,0,0,1,3.079,4.827l.105.259-.165.225a13.488,13.488,0,0,1-3.154,2.858A16.78,16.78,0,0,1,731.573,167.913Zm-11.949-6.063a12.47,12.47,0,0,0,2.66,2.373,16.355,16.355,0,0,0,8.931,2.686c.118,0,.238,0,.357,0h0a15.782,15.782,0,0,0,8.9-2.653,13.529,13.529,0,0,0,2.73-2.4,19.116,19.116,0,0,0-2.811-4.308,14.71,14.71,0,0,0-3.779-3.16,11.569,11.569,0,0,0-5.426-1.537,10,10,0,0,0-5.51,1.413,12.961,12.961,0,0,0-3.512,3.16A18.239,18.239,0,0,0,719.624,161.85Z" transform="translate(-401.223 -90.412)" fill="#707070"/></g></svg>